<?xml version="1.0" encoding="UTF-8" standalone="no" ?>
<!DOCTYPE svg PUBLIC "-//W3C//DTD SVG 1.1//EN" "http://www.w3.org/Graphics/SVG/1.1/DTD/svg11.dtd">
<svg xmlns="http://www.w3.org/2000/svg" xmlns:xlink="http://www.w3.org/1999/xlink" version="1.1" width="500" height="500" viewBox="0 0 500 500" xml:space="preserve">
<desc>Created with Fabric.js 4.6.0</desc>
<defs>
</defs>
<g transform="matrix(1 0 0 1 2065 250.5)" id="zCyrWEb_iOAmPeg098hsk"  >
<path style="stroke: none; stroke-width: 1; stroke-dasharray: none; stroke-linecap: butt; stroke-dashoffset: 0; stroke-linejoin: miter; stroke-miterlimit: 4; fill: rgb(255,85,0); fill-rule: evenodd; opacity: 1;" vector-effect="non-scaling-stroke"  transform=" translate(-2059, -255.5)" d="M 1477.93514 255.5 C 1477.93514 113.55279999999999 1552.10933 0 1685.8690100000001 0 C 1819.65388 0 1893.8028800000002 113.5528 1893.8028800000002 255.5 C 1893.8028800000002 397.47113 1819.62856 511 1685.89414 511 C 1552.1093300000002 511 1477.93514 397.47101 1477.93514 255.5 z M 1685.86901 440.13479 C 1737.8965899999998 440.13479 1760.04327 354.95208 1760.04327 255.69279 C 1760.04327 156.38531 1737.72075 71.25085000000001 1685.86901 71.25085000000001 C 1634.0172699999998 71.25085000000001 1611.6947499999999 156.40937000000002 1611.6947499999999 255.69266000000002 C 1611.51885 354.95196 1633.84163 440.13466000000005 1685.86901 440.13466000000005 z M 96.49671 7.23112 L 96.49671 142.11575 L 103.87898 142.11575 L 200.37569 7.231120000000004 L 333.95973 7.231120000000004 L 155.73072 163.27885 L 163.11299 170.34130000000002 L 489.89135 7.062400000000025 L 489.89135 120.61520000000003 L 200.20004999999998 219.89862000000005 L 200.20004999999998 226.93695000000005 L 489.89135 202.15829000000005 L 489.89135 308.67282000000006 L 200.20004999999998 283.89385000000004 L 200.20004999999998 290.95624000000004 L 489.89135 390.21573 L 489.89135 503.79265 L 163.11298999999997 340.48987999999997 L 155.73071999999996 347.55226999999996 L 333.9597299999999 503.59986999999995 L 200.37581999999992 503.59986999999995 L 103.87910999999993 368.7151799999999 L 96.49670999999992 368.7151799999999 L 96.49670999999992 503.5998699999999 L -7.105427357601002e-14 503.5998699999999 L -7.105427357601002e-14 6.893689999999879 L 96.49670999999992 6.893689999999879 z M 579.35734 7.23112 L 705.5841 7.23112 L 698.20189 305.22592 L 705.58416 305.22592 L 854.10845 7.231119999999976 L 965.54554 7.231119999999976 L 965.54554 503.96135999999996 L 839.34377 503.96135999999996 L 846.7259799999999 205.94249999999994 L 839.34377 205.94249999999994 L 690.76936 503.98547999999994 L 579.33227 503.98547999999994 L 579.33227 7.231119999999919 z M 1180.86163 7.23112 L 1054.65993 7.23112 L 1054.65993 503.96135999999996 L 1180.86163 503.96135999999996 L 1180.86163 283.89402999999993 L 1284.74068 283.89402999999993 L 1284.74068 503.9613599999999 L 1410.9423800000002 503.9613599999999 L 1410.9423800000002 7.231119999999919 L 1284.74068 7.231119999999919 L 1284.74068 198.90423999999993 L 1180.86163 198.90423999999993 z M 2317.07809 7.23112 L 1960.77057 7.23112 L 1960.77057 503.96135999999996 L 2086.99714 503.96135999999996 L 2086.99714 92.38969999999995 L 2190.87619 92.38969999999995 L 2190.87619 503.96142 L 2317.07789 503.96142 z M 2383.87014 255.5 C 2383.87014 113.55279999999999 2458.04473 0 2591.82907 0 C 2725.4129799999996 0 2799.7628799999998 113.5528 2799.7628799999998 255.5 C 2799.7628799999998 397.47113 2725.5886199999995 511 2591.82907 511 C 2458.24516 511 2383.87014 397.47101 2383.87014 255.5 z M 2591.82914 440.13479 C 2643.8567199999998 440.13479 2666.0033999999996 354.95208 2666.0033999999996 255.69279 C 2666.0033999999996 156.38531 2643.6808099999994 71.25085000000001 2591.82914 71.25085000000001 C 2539.80156 71.25085000000001 2517.6548199999997 156.40943000000001 2517.6548199999997 255.69279 C 2517.6547499999997 354.95196 2539.8016999999995 440.13467 2591.8290799999995 440.13467 z M 2992.75643 7.23112 L 2866.55473 7.23112 L 2866.55473 503.96135999999996 L 2977.9919499999996 503.96135999999996 L 3126.54123 205.94249999999994 L 3133.9235 205.94249999999994 L 3126.54123 503.96135999999996 L 3252.74293 503.96135999999996 L 3252.74293 7.231119999999976 L 3141.30571 7.231119999999976 L 2992.75643 305.22592 L 2985.37416 305.22592 z M 3587.07942 333.62019 L 3705.89865 347.72096999999997 C 3683.57587 447.02831999999995 3631.72452 511 3520.99039 511 C 3387.4063499999997 511 3319.71044 397.47132 3319.71044 255.5 C 3319.71044 113.55279999999999 3387.23044 0 3520.99039 0 C 3629.38924 0 3683.57627 63.85088 3705.89865 156.07185 L 3587.07942 184.44201 C 3579.69695 134.7159 3558.07765 70.91327000000001 3520.99039 70.91327000000001 C 3476.52125 70.91327000000001 3453.47039 156.07185 3453.47039 255.33115 C 3453.47039 353.91553 3476.52113 439.77309 3520.99039 439.77309 C 3557.3745599999997 440.13467 3579.49618 383.34624 3587.07942 333.6202 z M 3884.12799 7.25524 L 3765.30863 7.25524 L 3765.30863 503.96149 L 3884.12786 503.96149 L 3884.12786 283.89409 L 3891.51 283.89409 L 3980.62444 503.96149 L 4118 503.96149 L 3988.00671 248.46149000000003 L 4114.20841 7.231120000000033 L 3988.00671 7.231120000000033 L 3891.51 227.29845000000003 L 3884.1276000000003 227.29845000000003 L 3884.1276000000003 7.231120000000033 z" stroke-linecap="round" />
</g>
</svg>